<mxfile host="app.diagrams.net" modified="2024-05-29T12:13:58.135Z" agent="Mozilla/5.0 (Windows NT 10.0; Win64; x64) AppleWebKit/537.36 (KHTML, like Gecko) Chrome/125.0.0.0 Safari/537.36" etag="kLh3UL_5UGX6wnSRgwDu" version="24.4.8" type="github">
  <diagram id="C5RBs43oDa-KdzZeNtuy" name="Page-1">
    <mxGraphModel dx="1713" dy="1025" grid="1" gridSize="10" guides="1" tooltips="1" connect="1" arrows="1" fold="1" page="1" pageScale="1" pageWidth="827" pageHeight="1169" math="0" shadow="0">
      <root>
        <mxCell id="WIyWlLk6GJQsqaUBKTNV-0" />
        <mxCell id="WIyWlLk6GJQsqaUBKTNV-1" parent="WIyWlLk6GJQsqaUBKTNV-0" />
        <mxCell id="WIyWlLk6GJQsqaUBKTNV-2" value="" style="rounded=0;html=1;jettySize=auto;orthogonalLoop=1;fontSize=11;endArrow=block;endFill=0;endSize=8;strokeWidth=1;shadow=0;labelBackgroundColor=none;edgeStyle=orthogonalEdgeStyle;" parent="WIyWlLk6GJQsqaUBKTNV-1" edge="1">
          <mxGeometry relative="1" as="geometry">
            <mxPoint x="272" y="120" as="sourcePoint" />
            <mxPoint x="272" y="170" as="targetPoint" />
          </mxGeometry>
        </mxCell>
        <mxCell id="_exl6BNR2H-GNm7A4Uwv-1" value="client请求" style="strokeWidth=2;html=1;shape=mxgraph.flowchart.start_1;whiteSpace=wrap;" vertex="1" parent="WIyWlLk6GJQsqaUBKTNV-1">
          <mxGeometry x="237" y="70" width="70" height="50" as="geometry" />
        </mxCell>
        <mxCell id="_exl6BNR2H-GNm7A4Uwv-4" value="" style="edgeStyle=orthogonalEdgeStyle;rounded=0;orthogonalLoop=1;jettySize=auto;html=1;" edge="1" parent="WIyWlLk6GJQsqaUBKTNV-1" source="_exl6BNR2H-GNm7A4Uwv-2" target="_exl6BNR2H-GNm7A4Uwv-3">
          <mxGeometry relative="1" as="geometry" />
        </mxCell>
        <mxCell id="_exl6BNR2H-GNm7A4Uwv-28" style="edgeStyle=orthogonalEdgeStyle;rounded=0;orthogonalLoop=1;jettySize=auto;html=1;" edge="1" parent="WIyWlLk6GJQsqaUBKTNV-1" source="_exl6BNR2H-GNm7A4Uwv-2" target="_exl6BNR2H-GNm7A4Uwv-14">
          <mxGeometry relative="1" as="geometry" />
        </mxCell>
        <mxCell id="_exl6BNR2H-GNm7A4Uwv-2" value="ip匹配全局白名单列表" style="strokeWidth=2;html=1;shape=mxgraph.flowchart.decision;whiteSpace=wrap;" vertex="1" parent="WIyWlLk6GJQsqaUBKTNV-1">
          <mxGeometry x="222" y="170" width="100" height="100" as="geometry" />
        </mxCell>
        <mxCell id="_exl6BNR2H-GNm7A4Uwv-27" style="edgeStyle=orthogonalEdgeStyle;rounded=0;orthogonalLoop=1;jettySize=auto;html=1;" edge="1" parent="WIyWlLk6GJQsqaUBKTNV-1" source="_exl6BNR2H-GNm7A4Uwv-3" target="_exl6BNR2H-GNm7A4Uwv-14">
          <mxGeometry relative="1" as="geometry" />
        </mxCell>
        <mxCell id="_exl6BNR2H-GNm7A4Uwv-3" value="accesskey匹配" style="strokeWidth=2;html=1;shape=mxgraph.flowchart.decision;whiteSpace=wrap;" vertex="1" parent="WIyWlLk6GJQsqaUBKTNV-1">
          <mxGeometry x="222" y="320" width="100" height="100" as="geometry" />
        </mxCell>
        <mxCell id="_exl6BNR2H-GNm7A4Uwv-8" value="" style="edgeStyle=orthogonalEdgeStyle;rounded=0;orthogonalLoop=1;jettySize=auto;html=1;" edge="1" parent="WIyWlLk6GJQsqaUBKTNV-1" source="_exl6BNR2H-GNm7A4Uwv-5" target="_exl6BNR2H-GNm7A4Uwv-7">
          <mxGeometry relative="1" as="geometry" />
        </mxCell>
        <mxCell id="_exl6BNR2H-GNm7A4Uwv-26" style="edgeStyle=orthogonalEdgeStyle;rounded=0;orthogonalLoop=1;jettySize=auto;html=1;" edge="1" parent="WIyWlLk6GJQsqaUBKTNV-1" source="_exl6BNR2H-GNm7A4Uwv-5" target="_exl6BNR2H-GNm7A4Uwv-14">
          <mxGeometry relative="1" as="geometry" />
        </mxCell>
        <mxCell id="_exl6BNR2H-GNm7A4Uwv-5" value="用户级白名单匹配" style="strokeWidth=2;html=1;shape=mxgraph.flowchart.decision;whiteSpace=wrap;" vertex="1" parent="WIyWlLk6GJQsqaUBKTNV-1">
          <mxGeometry x="222" y="470" width="100" height="100" as="geometry" />
        </mxCell>
        <mxCell id="_exl6BNR2H-GNm7A4Uwv-6" style="edgeStyle=orthogonalEdgeStyle;rounded=0;orthogonalLoop=1;jettySize=auto;html=1;entryX=0.5;entryY=0;entryDx=0;entryDy=0;entryPerimeter=0;" edge="1" parent="WIyWlLk6GJQsqaUBKTNV-1" source="_exl6BNR2H-GNm7A4Uwv-3" target="_exl6BNR2H-GNm7A4Uwv-5">
          <mxGeometry relative="1" as="geometry" />
        </mxCell>
        <mxCell id="_exl6BNR2H-GNm7A4Uwv-10" value="" style="edgeStyle=orthogonalEdgeStyle;rounded=0;orthogonalLoop=1;jettySize=auto;html=1;" edge="1" parent="WIyWlLk6GJQsqaUBKTNV-1" source="_exl6BNR2H-GNm7A4Uwv-7" target="_exl6BNR2H-GNm7A4Uwv-9">
          <mxGeometry relative="1" as="geometry" />
        </mxCell>
        <mxCell id="_exl6BNR2H-GNm7A4Uwv-25" style="edgeStyle=orthogonalEdgeStyle;rounded=0;orthogonalLoop=1;jettySize=auto;html=1;" edge="1" parent="WIyWlLk6GJQsqaUBKTNV-1" source="_exl6BNR2H-GNm7A4Uwv-7" target="_exl6BNR2H-GNm7A4Uwv-14">
          <mxGeometry relative="1" as="geometry" />
        </mxCell>
        <mxCell id="_exl6BNR2H-GNm7A4Uwv-7" value="secretKey匹配" style="strokeWidth=2;html=1;shape=mxgraph.flowchart.decision;whiteSpace=wrap;" vertex="1" parent="WIyWlLk6GJQsqaUBKTNV-1">
          <mxGeometry x="222" y="620" width="100" height="100" as="geometry" />
        </mxCell>
        <mxCell id="_exl6BNR2H-GNm7A4Uwv-12" value="" style="edgeStyle=orthogonalEdgeStyle;rounded=0;orthogonalLoop=1;jettySize=auto;html=1;" edge="1" parent="WIyWlLk6GJQsqaUBKTNV-1" source="_exl6BNR2H-GNm7A4Uwv-9" target="_exl6BNR2H-GNm7A4Uwv-11">
          <mxGeometry relative="1" as="geometry" />
        </mxCell>
        <mxCell id="_exl6BNR2H-GNm7A4Uwv-24" style="edgeStyle=orthogonalEdgeStyle;rounded=0;orthogonalLoop=1;jettySize=auto;html=1;" edge="1" parent="WIyWlLk6GJQsqaUBKTNV-1" source="_exl6BNR2H-GNm7A4Uwv-9" target="_exl6BNR2H-GNm7A4Uwv-14">
          <mxGeometry relative="1" as="geometry" />
        </mxCell>
        <mxCell id="_exl6BNR2H-GNm7A4Uwv-9" value="是否是admin用户" style="strokeWidth=2;html=1;shape=mxgraph.flowchart.decision;whiteSpace=wrap;" vertex="1" parent="WIyWlLk6GJQsqaUBKTNV-1">
          <mxGeometry x="222" y="770" width="100" height="100" as="geometry" />
        </mxCell>
        <mxCell id="_exl6BNR2H-GNm7A4Uwv-11" value="用户是否具备操作权限" style="strokeWidth=2;html=1;shape=mxgraph.flowchart.decision;whiteSpace=wrap;" vertex="1" parent="WIyWlLk6GJQsqaUBKTNV-1">
          <mxGeometry x="222" y="940" width="100" height="100" as="geometry" />
        </mxCell>
        <mxCell id="_exl6BNR2H-GNm7A4Uwv-14" value="结束" style="strokeWidth=2;html=1;shape=mxgraph.flowchart.terminator;whiteSpace=wrap;" vertex="1" parent="WIyWlLk6GJQsqaUBKTNV-1">
          <mxGeometry x="492" y="1109" width="100" height="60" as="geometry" />
        </mxCell>
        <mxCell id="_exl6BNR2H-GNm7A4Uwv-17" value="否，响应失败" style="text;html=1;align=center;verticalAlign=middle;resizable=0;points=[];autosize=1;strokeColor=none;fillColor=none;" vertex="1" parent="WIyWlLk6GJQsqaUBKTNV-1">
          <mxGeometry x="332" y="1150" width="100" height="30" as="geometry" />
        </mxCell>
        <mxCell id="_exl6BNR2H-GNm7A4Uwv-23" style="edgeStyle=orthogonalEdgeStyle;rounded=0;orthogonalLoop=1;jettySize=auto;html=1;entryX=0.5;entryY=0;entryDx=0;entryDy=0;entryPerimeter=0;" edge="1" parent="WIyWlLk6GJQsqaUBKTNV-1" source="_exl6BNR2H-GNm7A4Uwv-11" target="_exl6BNR2H-GNm7A4Uwv-14">
          <mxGeometry relative="1" as="geometry" />
        </mxCell>
        <mxCell id="_exl6BNR2H-GNm7A4Uwv-29" value="是，执行操作" style="text;html=1;align=center;verticalAlign=middle;resizable=0;points=[];autosize=1;strokeColor=none;fillColor=none;" vertex="1" parent="WIyWlLk6GJQsqaUBKTNV-1">
          <mxGeometry x="352" y="1000" width="100" height="30" as="geometry" />
        </mxCell>
        <mxCell id="_exl6BNR2H-GNm7A4Uwv-31" style="edgeStyle=orthogonalEdgeStyle;rounded=0;orthogonalLoop=1;jettySize=auto;html=1;entryX=0;entryY=0.5;entryDx=0;entryDy=0;entryPerimeter=0;" edge="1" parent="WIyWlLk6GJQsqaUBKTNV-1" source="_exl6BNR2H-GNm7A4Uwv-11" target="_exl6BNR2H-GNm7A4Uwv-14">
          <mxGeometry relative="1" as="geometry">
            <Array as="points">
              <mxPoint x="272" y="1139" />
            </Array>
          </mxGeometry>
        </mxCell>
        <mxCell id="_exl6BNR2H-GNm7A4Uwv-32" value="否" style="text;html=1;align=center;verticalAlign=middle;resizable=0;points=[];autosize=1;strokeColor=none;fillColor=none;" vertex="1" parent="WIyWlLk6GJQsqaUBKTNV-1">
          <mxGeometry x="287" y="890" width="40" height="30" as="geometry" />
        </mxCell>
        <mxCell id="_exl6BNR2H-GNm7A4Uwv-33" value="是，执行操作" style="text;html=1;align=center;verticalAlign=middle;resizable=0;points=[];autosize=1;strokeColor=none;fillColor=none;" vertex="1" parent="WIyWlLk6GJQsqaUBKTNV-1">
          <mxGeometry x="352" y="818" width="100" height="30" as="geometry" />
        </mxCell>
        <mxCell id="_exl6BNR2H-GNm7A4Uwv-34" value="是" style="text;html=1;align=center;verticalAlign=middle;resizable=0;points=[];autosize=1;strokeColor=none;fillColor=none;" vertex="1" parent="WIyWlLk6GJQsqaUBKTNV-1">
          <mxGeometry x="272" y="728" width="40" height="30" as="geometry" />
        </mxCell>
        <mxCell id="_exl6BNR2H-GNm7A4Uwv-35" value="否，响应失败" style="text;html=1;align=center;verticalAlign=middle;resizable=0;points=[];autosize=1;strokeColor=none;fillColor=none;" vertex="1" parent="WIyWlLk6GJQsqaUBKTNV-1">
          <mxGeometry x="362" y="680" width="100" height="30" as="geometry" />
        </mxCell>
        <mxCell id="_exl6BNR2H-GNm7A4Uwv-36" value="否" style="text;html=1;align=center;verticalAlign=middle;resizable=0;points=[];autosize=1;strokeColor=none;fillColor=none;" vertex="1" parent="WIyWlLk6GJQsqaUBKTNV-1">
          <mxGeometry x="277" y="578" width="40" height="30" as="geometry" />
        </mxCell>
        <mxCell id="_exl6BNR2H-GNm7A4Uwv-37" value="是，执行操作" style="text;html=1;align=center;verticalAlign=middle;resizable=0;points=[];autosize=1;strokeColor=none;fillColor=none;" vertex="1" parent="WIyWlLk6GJQsqaUBKTNV-1">
          <mxGeometry x="357" y="520" width="100" height="30" as="geometry" />
        </mxCell>
        <mxCell id="_exl6BNR2H-GNm7A4Uwv-38" value="是" style="text;html=1;align=center;verticalAlign=middle;resizable=0;points=[];autosize=1;strokeColor=none;fillColor=none;" vertex="1" parent="WIyWlLk6GJQsqaUBKTNV-1">
          <mxGeometry x="277" y="420" width="40" height="30" as="geometry" />
        </mxCell>
        <mxCell id="_exl6BNR2H-GNm7A4Uwv-39" value="否，响应失败" style="text;html=1;align=center;verticalAlign=middle;resizable=0;points=[];autosize=1;strokeColor=none;fillColor=none;" vertex="1" parent="WIyWlLk6GJQsqaUBKTNV-1">
          <mxGeometry x="347" y="370" width="100" height="30" as="geometry" />
        </mxCell>
        <mxCell id="_exl6BNR2H-GNm7A4Uwv-40" value="否" style="text;html=1;align=center;verticalAlign=middle;resizable=0;points=[];autosize=1;strokeColor=none;fillColor=none;" vertex="1" parent="WIyWlLk6GJQsqaUBKTNV-1">
          <mxGeometry x="277" y="278" width="40" height="30" as="geometry" />
        </mxCell>
        <mxCell id="_exl6BNR2H-GNm7A4Uwv-41" value="是，执行操作" style="text;html=1;align=center;verticalAlign=middle;resizable=0;points=[];autosize=1;strokeColor=none;fillColor=none;" vertex="1" parent="WIyWlLk6GJQsqaUBKTNV-1">
          <mxGeometry x="352" y="220" width="100" height="30" as="geometry" />
        </mxCell>
      </root>
    </mxGraphModel>
  </diagram>
</mxfile>
